<mxfile host="app.diagrams.net" modified="2022-03-17T16:29:12.905Z" agent="5.0 (Windows NT 10.0; Win64; x64) AppleWebKit/537.36 (KHTML, like Gecko) Chrome/99.0.4844.51 Safari/537.36" etag="QlYNI6U_zJxbEFLVElQ6" version="17.1.2" type="github">
  <diagram id="Hv8dIByFQF0DWqGsEmNq" name="Page-1">
    <mxGraphModel dx="1915" dy="4138" grid="1" gridSize="10" guides="1" tooltips="1" connect="1" arrows="1" fold="1" page="1" pageScale="1" pageWidth="827" pageHeight="1169" math="0" shadow="0">
      <root>
        <mxCell id="0" />
        <mxCell id="1" parent="0" />
        <mxCell id="-6VNuhuK6d15pAhx_Pdp-62" style="edgeStyle=orthogonalEdgeStyle;rounded=0;orthogonalLoop=1;jettySize=auto;html=1;fontSize=30;strokeColor=default;exitX=0.392;exitY=0.001;exitDx=0;exitDy=0;exitPerimeter=0;" edge="1" parent="1" source="-6VNuhuK6d15pAhx_Pdp-59" target="-6VNuhuK6d15pAhx_Pdp-36">
          <mxGeometry relative="1" as="geometry" />
        </mxCell>
        <mxCell id="-6VNuhuK6d15pAhx_Pdp-63" style="edgeStyle=orthogonalEdgeStyle;rounded=0;orthogonalLoop=1;jettySize=auto;html=1;fontSize=30;strokeColor=default;" edge="1" parent="1" source="-6VNuhuK6d15pAhx_Pdp-59" target="-6VNuhuK6d15pAhx_Pdp-35">
          <mxGeometry relative="1" as="geometry" />
        </mxCell>
        <mxCell id="-6VNuhuK6d15pAhx_Pdp-59" value="" style="shape=parallelogram;perimeter=parallelogramPerimeter;whiteSpace=wrap;html=1;fixedSize=1;" vertex="1" parent="1">
          <mxGeometry x="-560" y="-505" width="2050" height="920" as="geometry" />
        </mxCell>
        <mxCell id="-6VNuhuK6d15pAhx_Pdp-46" style="edgeStyle=orthogonalEdgeStyle;rounded=0;orthogonalLoop=1;jettySize=auto;html=1;" edge="1" parent="1" source="-6VNuhuK6d15pAhx_Pdp-35" target="-6VNuhuK6d15pAhx_Pdp-36">
          <mxGeometry relative="1" as="geometry">
            <Array as="points">
              <mxPoint x="366" y="-664" />
              <mxPoint x="366" y="-664" />
            </Array>
          </mxGeometry>
        </mxCell>
        <mxCell id="-6VNuhuK6d15pAhx_Pdp-35" value="Contenedor Docker" style="rounded=0;whiteSpace=wrap;html=1;" vertex="1" parent="1">
          <mxGeometry x="468" y="-784" width="270" height="200" as="geometry" />
        </mxCell>
        <mxCell id="-6VNuhuK6d15pAhx_Pdp-44" style="edgeStyle=orthogonalEdgeStyle;rounded=0;orthogonalLoop=1;jettySize=auto;html=1;" edge="1" parent="1" source="-6VNuhuK6d15pAhx_Pdp-34" target="-6VNuhuK6d15pAhx_Pdp-36">
          <mxGeometry relative="1" as="geometry" />
        </mxCell>
        <mxCell id="-6VNuhuK6d15pAhx_Pdp-64" style="edgeStyle=orthogonalEdgeStyle;rounded=0;orthogonalLoop=1;jettySize=auto;html=1;entryX=0.5;entryY=0;entryDx=0;entryDy=0;fontSize=30;strokeColor=default;" edge="1" parent="1" source="-6VNuhuK6d15pAhx_Pdp-34" target="-6VNuhuK6d15pAhx_Pdp-35">
          <mxGeometry relative="1" as="geometry" />
        </mxCell>
        <mxCell id="-6VNuhuK6d15pAhx_Pdp-34" value="Contenedor Docker" style="rounded=0;whiteSpace=wrap;html=1;" vertex="1" parent="1">
          <mxGeometry x="-94" y="-1169" width="270" height="200" as="geometry" />
        </mxCell>
        <mxCell id="-6VNuhuK6d15pAhx_Pdp-41" style="edgeStyle=orthogonalEdgeStyle;rounded=0;orthogonalLoop=1;jettySize=auto;html=1;" edge="1" parent="1" source="-6VNuhuK6d15pAhx_Pdp-36" target="-6VNuhuK6d15pAhx_Pdp-35">
          <mxGeometry relative="1" as="geometry">
            <Array as="points">
              <mxPoint x="366" y="-734" />
              <mxPoint x="366" y="-734" />
            </Array>
          </mxGeometry>
        </mxCell>
        <mxCell id="-6VNuhuK6d15pAhx_Pdp-36" value="Contenedor Docker" style="rounded=0;whiteSpace=wrap;html=1;" vertex="1" parent="1">
          <mxGeometry x="-94" y="-784" width="270" height="200" as="geometry" />
        </mxCell>
        <mxCell id="-6VNuhuK6d15pAhx_Pdp-18" value="Contenedor Docker" style="rounded=0;whiteSpace=wrap;html=1;" vertex="1" parent="1">
          <mxGeometry x="303" y="145" width="270" height="200" as="geometry" />
        </mxCell>
        <mxCell id="-6VNuhuK6d15pAhx_Pdp-17" value="&#xa;&#xa;&lt;span style=&quot;color: rgb(0, 0, 0); font-family: helvetica; font-size: 12px; font-style: normal; font-weight: 400; letter-spacing: normal; text-align: center; text-indent: 0px; text-transform: none; word-spacing: 0px; background-color: rgb(248, 249, 250); display: inline; float: none;&quot;&gt;Contenedor Docker&lt;/span&gt;&#xa;&#xa;" style="rounded=0;whiteSpace=wrap;html=1;" vertex="1" parent="1">
          <mxGeometry x="924" y="-135" width="270" height="200" as="geometry" />
        </mxCell>
        <mxCell id="-6VNuhuK6d15pAhx_Pdp-16" value="&lt;span&gt;Contenedor Docker&lt;/span&gt;" style="rounded=0;whiteSpace=wrap;html=1;" vertex="1" parent="1">
          <mxGeometry x="514" y="-125" width="270" height="200" as="geometry" />
        </mxCell>
        <mxCell id="-6VNuhuK6d15pAhx_Pdp-11" value="Contenedor Docker" style="rounded=0;whiteSpace=wrap;html=1;" vertex="1" parent="1">
          <mxGeometry x="-246" y="-115" width="270" height="200" as="geometry" />
        </mxCell>
        <mxCell id="-6VNuhuK6d15pAhx_Pdp-15" value="Contenedor Docker" style="rounded=0;whiteSpace=wrap;html=1;" vertex="1" parent="1">
          <mxGeometry x="134" y="-125" width="270" height="200" as="geometry" />
        </mxCell>
        <mxCell id="OK1mOUPvTJGve2_wuvui-1" style="edgeStyle=orthogonalEdgeStyle;rounded=0;orthogonalLoop=1;jettySize=auto;html=1;entryX=0;entryY=0.5;entryDx=0;entryDy=0;" parent="1" source="MTAutb3jexkhbd_ZXgUe-7" target="MTAutb3jexkhbd_ZXgUe-18" edge="1">
          <mxGeometry relative="1" as="geometry" />
        </mxCell>
        <mxCell id="OK1mOUPvTJGve2_wuvui-2" style="edgeStyle=orthogonalEdgeStyle;rounded=0;orthogonalLoop=1;jettySize=auto;html=1;" parent="1" source="MTAutb3jexkhbd_ZXgUe-7" target="MTAutb3jexkhbd_ZXgUe-19" edge="1">
          <mxGeometry relative="1" as="geometry" />
        </mxCell>
        <mxCell id="OK1mOUPvTJGve2_wuvui-6" style="edgeStyle=orthogonalEdgeStyle;rounded=0;orthogonalLoop=1;jettySize=auto;html=1;entryX=0;entryY=0.5;entryDx=0;entryDy=0;" parent="1" source="MTAutb3jexkhbd_ZXgUe-7" target="MTAutb3jexkhbd_ZXgUe-20" edge="1">
          <mxGeometry relative="1" as="geometry" />
        </mxCell>
        <mxCell id="MTAutb3jexkhbd_ZXgUe-7" value="MS Personal Accounts" style="ellipse;whiteSpace=wrap;html=1;fillColor=#7EA6E0;" parent="1" vertex="1">
          <mxGeometry x="1340" y="-2272.5" width="120" height="80" as="geometry" />
        </mxCell>
        <mxCell id="MTAutb3jexkhbd_ZXgUe-27" style="edgeStyle=orthogonalEdgeStyle;rounded=0;orthogonalLoop=1;jettySize=auto;html=1;" parent="1" source="OK1mOUPvTJGve2_wuvui-7" target="MTAutb3jexkhbd_ZXgUe-25" edge="1">
          <mxGeometry relative="1" as="geometry">
            <mxPoint x="1070" y="-1820.0000000000002" as="sourcePoint" />
            <Array as="points">
              <mxPoint x="1050" y="-1840" />
            </Array>
          </mxGeometry>
        </mxCell>
        <mxCell id="MTAutb3jexkhbd_ZXgUe-28" style="edgeStyle=orthogonalEdgeStyle;rounded=0;orthogonalLoop=1;jettySize=auto;html=1;entryX=0;entryY=0.5;entryDx=0;entryDy=0;" parent="1" source="OK1mOUPvTJGve2_wuvui-7" target="MTAutb3jexkhbd_ZXgUe-24" edge="1">
          <mxGeometry relative="1" as="geometry">
            <mxPoint x="1010" y="-1850.0000000000002" as="sourcePoint" />
          </mxGeometry>
        </mxCell>
        <mxCell id="MTAutb3jexkhbd_ZXgUe-18" value="&lt;span&gt;Saving Account&lt;/span&gt;" style="ellipse;whiteSpace=wrap;html=1;aspect=fixed;" parent="1" vertex="1">
          <mxGeometry x="1550" y="-2450" width="80" height="80" as="geometry" />
        </mxCell>
        <mxCell id="MTAutb3jexkhbd_ZXgUe-19" value="&lt;span style=&quot;color: rgb(51 , 51 , 51) ; font-family: &amp;#34;avenir next&amp;#34; , &amp;#34;roboto condensed&amp;#34; , &amp;#34;arial&amp;#34; , sans-serif ; font-size: 13px ; background-color: rgb(248 , 248 , 248)&quot;&gt;Current Account&lt;/span&gt;" style="ellipse;whiteSpace=wrap;html=1;aspect=fixed;" parent="1" vertex="1">
          <mxGeometry x="1550" y="-2272.5" width="80" height="80" as="geometry" />
        </mxCell>
        <mxCell id="MTAutb3jexkhbd_ZXgUe-20" value="&lt;span&gt;Time Deposit&lt;/span&gt;" style="ellipse;whiteSpace=wrap;html=1;aspect=fixed;" parent="1" vertex="1">
          <mxGeometry x="1550" y="-2112.5" width="80" height="80" as="geometry" />
        </mxCell>
        <mxCell id="MTAutb3jexkhbd_ZXgUe-24" value="Business Credit" style="ellipse;whiteSpace=wrap;html=1;aspect=fixed;" parent="1" vertex="1">
          <mxGeometry x="1080" y="-1980" width="80" height="80" as="geometry" />
        </mxCell>
        <mxCell id="MTAutb3jexkhbd_ZXgUe-25" value="Personal Credit" style="ellipse;whiteSpace=wrap;html=1;aspect=fixed;" parent="1" vertex="1">
          <mxGeometry x="1075" y="-1790" width="90" height="90" as="geometry" />
        </mxCell>
        <mxCell id="743XyLswEt4RJYl1_t1U-23" style="edgeStyle=orthogonalEdgeStyle;rounded=0;orthogonalLoop=1;jettySize=auto;html=1;" parent="1" source="743XyLswEt4RJYl1_t1U-3" target="743XyLswEt4RJYl1_t1U-19" edge="1">
          <mxGeometry relative="1" as="geometry" />
        </mxCell>
        <mxCell id="743XyLswEt4RJYl1_t1U-3" value="MS CLIENT" style="rounded=1;whiteSpace=wrap;html=1;" parent="1" vertex="1">
          <mxGeometry x="110" y="-1860" width="120" height="60" as="geometry" />
        </mxCell>
        <mxCell id="743XyLswEt4RJYl1_t1U-4" value="API" style="rounded=1;whiteSpace=wrap;html=1;" parent="1" vertex="1">
          <mxGeometry x="280" y="-1950" width="230" height="50" as="geometry" />
        </mxCell>
        <mxCell id="743XyLswEt4RJYl1_t1U-7" value="" style="endArrow=classic;html=1;rounded=0;entryX=0.75;entryY=0;entryDx=0;entryDy=0;exitX=0;exitY=0.75;exitDx=0;exitDy=0;" parent="1" source="743XyLswEt4RJYl1_t1U-4" target="743XyLswEt4RJYl1_t1U-3" edge="1">
          <mxGeometry width="50" height="50" relative="1" as="geometry">
            <mxPoint x="230" y="-1860" as="sourcePoint" />
            <mxPoint x="280" y="-1910" as="targetPoint" />
          </mxGeometry>
        </mxCell>
        <mxCell id="743XyLswEt4RJYl1_t1U-25" style="edgeStyle=orthogonalEdgeStyle;rounded=0;orthogonalLoop=1;jettySize=auto;html=1;" parent="1" source="743XyLswEt4RJYl1_t1U-8" target="743XyLswEt4RJYl1_t1U-21" edge="1">
          <mxGeometry relative="1" as="geometry" />
        </mxCell>
        <mxCell id="743XyLswEt4RJYl1_t1U-8" value="MS PRODUCT" style="rounded=1;whiteSpace=wrap;html=1;" parent="1" vertex="1">
          <mxGeometry x="560" y="-1860" width="120" height="60" as="geometry" />
        </mxCell>
        <mxCell id="743XyLswEt4RJYl1_t1U-24" style="edgeStyle=orthogonalEdgeStyle;rounded=0;orthogonalLoop=1;jettySize=auto;html=1;" parent="1" source="743XyLswEt4RJYl1_t1U-9" target="743XyLswEt4RJYl1_t1U-20" edge="1">
          <mxGeometry relative="1" as="geometry" />
        </mxCell>
        <mxCell id="743XyLswEt4RJYl1_t1U-9" value="MS Transactions" style="rounded=1;whiteSpace=wrap;html=1;" parent="1" vertex="1">
          <mxGeometry x="335" y="-1860" width="120" height="60" as="geometry" />
        </mxCell>
        <mxCell id="743XyLswEt4RJYl1_t1U-10" value="" style="endArrow=classic;html=1;rounded=0;entryX=0.5;entryY=0;entryDx=0;entryDy=0;exitX=0.5;exitY=1;exitDx=0;exitDy=0;" parent="1" source="743XyLswEt4RJYl1_t1U-4" target="743XyLswEt4RJYl1_t1U-9" edge="1">
          <mxGeometry width="50" height="50" relative="1" as="geometry">
            <mxPoint x="435" y="-1902.5" as="sourcePoint" />
            <mxPoint x="355" y="-1850" as="targetPoint" />
          </mxGeometry>
        </mxCell>
        <mxCell id="743XyLswEt4RJYl1_t1U-11" value="" style="endArrow=classic;html=1;rounded=0;entryX=0.25;entryY=0;entryDx=0;entryDy=0;" parent="1" target="743XyLswEt4RJYl1_t1U-8" edge="1">
          <mxGeometry width="50" height="50" relative="1" as="geometry">
            <mxPoint x="510" y="-1910" as="sourcePoint" />
            <mxPoint x="560" y="-1960" as="targetPoint" />
          </mxGeometry>
        </mxCell>
        <mxCell id="743XyLswEt4RJYl1_t1U-17" style="edgeStyle=orthogonalEdgeStyle;rounded=0;orthogonalLoop=1;jettySize=auto;html=1;" parent="1" source="743XyLswEt4RJYl1_t1U-15" target="743XyLswEt4RJYl1_t1U-4" edge="1">
          <mxGeometry relative="1" as="geometry">
            <Array as="points">
              <mxPoint x="310" y="-1990" />
              <mxPoint x="395" y="-1990" />
            </Array>
          </mxGeometry>
        </mxCell>
        <mxCell id="743XyLswEt4RJYl1_t1U-15" value="WEB" style="rounded=1;whiteSpace=wrap;html=1;rotation=-90;" parent="1" vertex="1">
          <mxGeometry x="250" y="-2130" width="120" height="60" as="geometry" />
        </mxCell>
        <mxCell id="743XyLswEt4RJYl1_t1U-18" style="edgeStyle=orthogonalEdgeStyle;rounded=0;orthogonalLoop=1;jettySize=auto;html=1;" parent="1" source="743XyLswEt4RJYl1_t1U-16" edge="1">
          <mxGeometry relative="1" as="geometry">
            <mxPoint x="400" y="-1950" as="targetPoint" />
            <Array as="points">
              <mxPoint x="474" y="-1990" />
              <mxPoint x="400" y="-1990" />
            </Array>
          </mxGeometry>
        </mxCell>
        <mxCell id="743XyLswEt4RJYl1_t1U-16" value="MOBILE" style="rounded=1;whiteSpace=wrap;html=1;rotation=-90;" parent="1" vertex="1">
          <mxGeometry x="414" y="-2130" width="120" height="60" as="geometry" />
        </mxCell>
        <mxCell id="743XyLswEt4RJYl1_t1U-19" value="" style="shape=cylinder3;whiteSpace=wrap;html=1;boundedLbl=1;backgroundOutline=1;size=15;" parent="1" vertex="1">
          <mxGeometry x="140" y="-1720" width="60" height="80" as="geometry" />
        </mxCell>
        <mxCell id="743XyLswEt4RJYl1_t1U-20" value="" style="shape=cylinder3;whiteSpace=wrap;html=1;boundedLbl=1;backgroundOutline=1;size=15;" parent="1" vertex="1">
          <mxGeometry x="365" y="-1720" width="60" height="80" as="geometry" />
        </mxCell>
        <mxCell id="743XyLswEt4RJYl1_t1U-21" value="" style="shape=cylinder3;whiteSpace=wrap;html=1;boundedLbl=1;backgroundOutline=1;size=15;" parent="1" vertex="1">
          <mxGeometry x="590" y="-1720" width="60" height="80" as="geometry" />
        </mxCell>
        <mxCell id="OK1mOUPvTJGve2_wuvui-7" value="MS Credits&lt;br&gt;" style="ellipse;whiteSpace=wrap;html=1;fillColor=#EA6B66;" parent="1" vertex="1">
          <mxGeometry x="900" y="-1880" width="120" height="80" as="geometry" />
        </mxCell>
        <mxCell id="OK1mOUPvTJGve2_wuvui-11" style="edgeStyle=orthogonalEdgeStyle;rounded=0;orthogonalLoop=1;jettySize=auto;html=1;" parent="1" source="OK1mOUPvTJGve2_wuvui-8" target="OK1mOUPvTJGve2_wuvui-9" edge="1">
          <mxGeometry relative="1" as="geometry" />
        </mxCell>
        <mxCell id="OK1mOUPvTJGve2_wuvui-12" style="edgeStyle=orthogonalEdgeStyle;rounded=0;orthogonalLoop=1;jettySize=auto;html=1;" parent="1" source="OK1mOUPvTJGve2_wuvui-8" target="OK1mOUPvTJGve2_wuvui-10" edge="1">
          <mxGeometry relative="1" as="geometry" />
        </mxCell>
        <mxCell id="OK1mOUPvTJGve2_wuvui-8" value="MS Credit Card" style="ellipse;whiteSpace=wrap;html=1;" parent="1" vertex="1">
          <mxGeometry x="1320" y="-1870" width="120" height="80" as="geometry" />
        </mxCell>
        <mxCell id="OK1mOUPvTJGve2_wuvui-9" value="Personal Credit Card" style="ellipse;whiteSpace=wrap;html=1;aspect=fixed;" parent="1" vertex="1">
          <mxGeometry x="1570" y="-1950" width="80" height="80" as="geometry" />
        </mxCell>
        <mxCell id="OK1mOUPvTJGve2_wuvui-10" value="Business Credit Card" style="ellipse;whiteSpace=wrap;html=1;aspect=fixed;" parent="1" vertex="1">
          <mxGeometry x="1570" y="-1793" width="80" height="80" as="geometry" />
        </mxCell>
        <mxCell id="OK1mOUPvTJGve2_wuvui-26" style="edgeStyle=orthogonalEdgeStyle;rounded=0;orthogonalLoop=1;jettySize=auto;html=1;" parent="1" source="OK1mOUPvTJGve2_wuvui-13" target="OK1mOUPvTJGve2_wuvui-24" edge="1">
          <mxGeometry relative="1" as="geometry" />
        </mxCell>
        <mxCell id="OK1mOUPvTJGve2_wuvui-27" style="edgeStyle=orthogonalEdgeStyle;rounded=0;orthogonalLoop=1;jettySize=auto;html=1;entryX=0;entryY=0.5;entryDx=0;entryDy=0;" parent="1" source="OK1mOUPvTJGve2_wuvui-13" target="OK1mOUPvTJGve2_wuvui-25" edge="1">
          <mxGeometry relative="1" as="geometry" />
        </mxCell>
        <mxCell id="OK1mOUPvTJGve2_wuvui-13" value="Account Transactions&lt;br&gt;" style="ellipse;whiteSpace=wrap;html=1;fillColor=#7EA6E0;" parent="1" vertex="1">
          <mxGeometry x="1940" y="-1920" width="120" height="80" as="geometry" />
        </mxCell>
        <mxCell id="OK1mOUPvTJGve2_wuvui-35" style="edgeStyle=orthogonalEdgeStyle;rounded=0;orthogonalLoop=1;jettySize=auto;html=1;" parent="1" source="OK1mOUPvTJGve2_wuvui-14" target="OK1mOUPvTJGve2_wuvui-32" edge="1">
          <mxGeometry relative="1" as="geometry" />
        </mxCell>
        <mxCell id="OK1mOUPvTJGve2_wuvui-36" style="edgeStyle=orthogonalEdgeStyle;rounded=0;orthogonalLoop=1;jettySize=auto;html=1;" parent="1" source="OK1mOUPvTJGve2_wuvui-14" target="OK1mOUPvTJGve2_wuvui-34" edge="1">
          <mxGeometry relative="1" as="geometry" />
        </mxCell>
        <mxCell id="OK1mOUPvTJGve2_wuvui-14" value="Credit Card Transactions" style="ellipse;whiteSpace=wrap;html=1;fillColor=#7EA6E0;" parent="1" vertex="1">
          <mxGeometry x="1940" y="-1670" width="120" height="80" as="geometry" />
        </mxCell>
        <mxCell id="OK1mOUPvTJGve2_wuvui-31" style="edgeStyle=orthogonalEdgeStyle;rounded=0;orthogonalLoop=1;jettySize=auto;html=1;" parent="1" source="OK1mOUPvTJGve2_wuvui-15" target="OK1mOUPvTJGve2_wuvui-30" edge="1">
          <mxGeometry relative="1" as="geometry" />
        </mxCell>
        <mxCell id="OK1mOUPvTJGve2_wuvui-15" value="Credit Transactions" style="ellipse;whiteSpace=wrap;html=1;fillColor=#f8cecc;strokeColor=#b85450;" parent="1" vertex="1">
          <mxGeometry x="1940" y="-1480" width="120" height="80" as="geometry" />
        </mxCell>
        <mxCell id="OK1mOUPvTJGve2_wuvui-17" style="edgeStyle=orthogonalEdgeStyle;rounded=0;orthogonalLoop=1;jettySize=auto;html=1;exitX=0.5;exitY=0;exitDx=0;exitDy=0;" parent="1" source="OK1mOUPvTJGve2_wuvui-19" target="OK1mOUPvTJGve2_wuvui-22" edge="1">
          <mxGeometry relative="1" as="geometry">
            <mxPoint x="1033" y="-2250" as="targetPoint" />
          </mxGeometry>
        </mxCell>
        <mxCell id="OK1mOUPvTJGve2_wuvui-18" style="edgeStyle=orthogonalEdgeStyle;rounded=0;orthogonalLoop=1;jettySize=auto;html=1;exitX=0.5;exitY=1;exitDx=0;exitDy=0;" parent="1" source="OK1mOUPvTJGve2_wuvui-19" target="OK1mOUPvTJGve2_wuvui-23" edge="1">
          <mxGeometry relative="1" as="geometry">
            <mxPoint x="1033" y="-2100" as="targetPoint" />
          </mxGeometry>
        </mxCell>
        <mxCell id="OK1mOUPvTJGve2_wuvui-19" value="MS Clients" style="ellipse;whiteSpace=wrap;html=1;strokeColor=none;fillColor=#EA6B66;" parent="1" vertex="1">
          <mxGeometry x="873" y="-2210" width="120" height="80" as="geometry" />
        </mxCell>
        <mxCell id="OK1mOUPvTJGve2_wuvui-22" value="Business" style="ellipse;whiteSpace=wrap;html=1;aspect=fixed;" parent="1" vertex="1">
          <mxGeometry x="1060" y="-2272.5" width="80" height="80" as="geometry" />
        </mxCell>
        <mxCell id="OK1mOUPvTJGve2_wuvui-23" value="Personal" style="ellipse;whiteSpace=wrap;html=1;aspect=fixed;" parent="1" vertex="1">
          <mxGeometry x="1060" y="-2150" width="80" height="80" as="geometry" />
        </mxCell>
        <mxCell id="OK1mOUPvTJGve2_wuvui-24" value="Deposits" style="ellipse;whiteSpace=wrap;html=1;aspect=fixed;" parent="1" vertex="1">
          <mxGeometry x="2200" y="-1990" width="80" height="80" as="geometry" />
        </mxCell>
        <mxCell id="OK1mOUPvTJGve2_wuvui-25" value="&lt;span style=&quot;color: rgb(51 , 51 , 51) ; font-family: &amp;#34;avenir next&amp;#34; , &amp;#34;roboto condensed&amp;#34; , &amp;#34;arial&amp;#34; , sans-serif ; font-size: 13px ; background-color: rgb(255 , 255 , 255)&quot;&gt;Withdraw&amp;nbsp;&lt;/span&gt;" style="ellipse;whiteSpace=wrap;html=1;aspect=fixed;" parent="1" vertex="1">
          <mxGeometry x="2200" y="-1870" width="80" height="80" as="geometry" />
        </mxCell>
        <mxCell id="OK1mOUPvTJGve2_wuvui-30" value="Payments" style="ellipse;whiteSpace=wrap;html=1;aspect=fixed;" parent="1" vertex="1">
          <mxGeometry x="2190" y="-1480" width="80" height="80" as="geometry" />
        </mxCell>
        <mxCell id="OK1mOUPvTJGve2_wuvui-32" value="Charge consumes" style="ellipse;whiteSpace=wrap;html=1;aspect=fixed;" parent="1" vertex="1">
          <mxGeometry x="2190" y="-1720" width="80" height="80" as="geometry" />
        </mxCell>
        <mxCell id="OK1mOUPvTJGve2_wuvui-34" value="Payment" style="ellipse;whiteSpace=wrap;html=1;aspect=fixed;" parent="1" vertex="1">
          <mxGeometry x="2190" y="-1618.5" width="80" height="80" as="geometry" />
        </mxCell>
        <mxCell id="OK1mOUPvTJGve2_wuvui-39" style="edgeStyle=orthogonalEdgeStyle;rounded=0;orthogonalLoop=1;jettySize=auto;html=1;exitX=0.5;exitY=0;exitDx=0;exitDy=0;entryX=0;entryY=0.5;entryDx=0;entryDy=0;" parent="1" source="OK1mOUPvTJGve2_wuvui-37" target="OK1mOUPvTJGve2_wuvui-38" edge="1">
          <mxGeometry relative="1" as="geometry" />
        </mxCell>
        <mxCell id="OK1mOUPvTJGve2_wuvui-44" style="edgeStyle=orthogonalEdgeStyle;rounded=0;orthogonalLoop=1;jettySize=auto;html=1;" parent="1" source="OK1mOUPvTJGve2_wuvui-37" target="OK1mOUPvTJGve2_wuvui-42" edge="1">
          <mxGeometry relative="1" as="geometry" />
        </mxCell>
        <mxCell id="OK1mOUPvTJGve2_wuvui-45" style="edgeStyle=orthogonalEdgeStyle;rounded=0;orthogonalLoop=1;jettySize=auto;html=1;entryX=0;entryY=0.5;entryDx=0;entryDy=0;exitX=0.5;exitY=1;exitDx=0;exitDy=0;" parent="1" source="OK1mOUPvTJGve2_wuvui-37" target="OK1mOUPvTJGve2_wuvui-43" edge="1">
          <mxGeometry relative="1" as="geometry" />
        </mxCell>
        <mxCell id="OK1mOUPvTJGve2_wuvui-37" value="MS Register Client Product" style="ellipse;whiteSpace=wrap;html=1;fillColor=#f8cecc;strokeColor=#b85450;" parent="1" vertex="1">
          <mxGeometry x="1370" y="-1520" width="120" height="80" as="geometry" />
        </mxCell>
        <mxCell id="OK1mOUPvTJGve2_wuvui-64" style="edgeStyle=orthogonalEdgeStyle;rounded=0;orthogonalLoop=1;jettySize=auto;html=1;entryX=0.5;entryY=0;entryDx=0;entryDy=0;" parent="1" source="OK1mOUPvTJGve2_wuvui-38" target="OK1mOUPvTJGve2_wuvui-62" edge="1">
          <mxGeometry relative="1" as="geometry" />
        </mxCell>
        <mxCell id="OK1mOUPvTJGve2_wuvui-38" value="Register credit card to client" style="ellipse;whiteSpace=wrap;html=1;aspect=fixed;" parent="1" vertex="1">
          <mxGeometry x="1574" y="-1630" width="80" height="80" as="geometry" />
        </mxCell>
        <mxCell id="OK1mOUPvTJGve2_wuvui-72" style="edgeStyle=orthogonalEdgeStyle;rounded=0;orthogonalLoop=1;jettySize=auto;html=1;" parent="1" source="OK1mOUPvTJGve2_wuvui-42" target="OK1mOUPvTJGve2_wuvui-62" edge="1">
          <mxGeometry relative="1" as="geometry" />
        </mxCell>
        <mxCell id="OK1mOUPvTJGve2_wuvui-42" value="Register credit to client" style="ellipse;whiteSpace=wrap;html=1;aspect=fixed;" parent="1" vertex="1">
          <mxGeometry x="1560" y="-1520" width="80" height="80" as="geometry" />
        </mxCell>
        <mxCell id="OK1mOUPvTJGve2_wuvui-65" style="edgeStyle=orthogonalEdgeStyle;rounded=0;orthogonalLoop=1;jettySize=auto;html=1;entryX=0.5;entryY=1;entryDx=0;entryDy=0;" parent="1" source="OK1mOUPvTJGve2_wuvui-43" edge="1">
          <mxGeometry relative="1" as="geometry">
            <mxPoint x="1760" y="-1450" as="targetPoint" />
          </mxGeometry>
        </mxCell>
        <mxCell id="OK1mOUPvTJGve2_wuvui-43" value="Register account to client" style="ellipse;whiteSpace=wrap;html=1;aspect=fixed;" parent="1" vertex="1">
          <mxGeometry x="1570" y="-1360" width="80" height="80" as="geometry" />
        </mxCell>
        <mxCell id="OK1mOUPvTJGve2_wuvui-49" style="edgeStyle=orthogonalEdgeStyle;rounded=0;orthogonalLoop=1;jettySize=auto;html=1;" parent="1" source="OK1mOUPvTJGve2_wuvui-51" target="OK1mOUPvTJGve2_wuvui-53" edge="1">
          <mxGeometry relative="1" as="geometry" />
        </mxCell>
        <mxCell id="OK1mOUPvTJGve2_wuvui-51" value="MS Business Accounts" style="ellipse;whiteSpace=wrap;html=1;fillColor=#7EA6E0;" parent="1" vertex="1">
          <mxGeometry x="1940" y="-2272.5" width="120" height="80" as="geometry" />
        </mxCell>
        <mxCell id="OK1mOUPvTJGve2_wuvui-53" value="&lt;span style=&quot;color: rgb(51 , 51 , 51) ; font-family: &amp;#34;avenir next&amp;#34; , &amp;#34;roboto condensed&amp;#34; , &amp;#34;arial&amp;#34; , sans-serif ; font-size: 13px ; background-color: rgb(248 , 248 , 248)&quot;&gt;Current Account&lt;/span&gt;" style="ellipse;whiteSpace=wrap;html=1;aspect=fixed;" parent="1" vertex="1">
          <mxGeometry x="2150" y="-2272.5" width="80" height="80" as="geometry" />
        </mxCell>
        <mxCell id="OK1mOUPvTJGve2_wuvui-62" value="Register holders and signers" style="shape=parallelogram;perimeter=parallelogramPerimeter;whiteSpace=wrap;html=1;fixedSize=1;" parent="1" vertex="1">
          <mxGeometry x="1700" y="-1520" width="140" height="80" as="geometry" />
        </mxCell>
        <mxCell id="-6VNuhuK6d15pAhx_Pdp-4" style="edgeStyle=orthogonalEdgeStyle;rounded=0;orthogonalLoop=1;jettySize=auto;html=1;" edge="1" parent="1" source="-6VNuhuK6d15pAhx_Pdp-1" target="-6VNuhuK6d15pAhx_Pdp-3">
          <mxGeometry relative="1" as="geometry" />
        </mxCell>
        <mxCell id="-6VNuhuK6d15pAhx_Pdp-1" value="MS Commision Transactions" style="ellipse;whiteSpace=wrap;html=1;" vertex="1" parent="1">
          <mxGeometry x="1420" y="-1150" width="120" height="80" as="geometry" />
        </mxCell>
        <mxCell id="-6VNuhuK6d15pAhx_Pdp-5" value="" style="ellipse;whiteSpace=wrap;html=1;" vertex="1" parent="1">
          <mxGeometry x="-106" y="-5" width="120" height="80" as="geometry" />
        </mxCell>
        <mxCell id="-6VNuhuK6d15pAhx_Pdp-3" value="Register all comissions per client, and product" style="ellipse;whiteSpace=wrap;html=1;aspect=fixed;" vertex="1" parent="1">
          <mxGeometry x="1610" y="-1150" width="80" height="80" as="geometry" />
        </mxCell>
        <mxCell id="-6VNuhuK6d15pAhx_Pdp-6" value="" style="ellipse;whiteSpace=wrap;html=1;" vertex="1" parent="1">
          <mxGeometry x="281" y="-5" width="120" height="80" as="geometry" />
        </mxCell>
        <mxCell id="-6VNuhuK6d15pAhx_Pdp-7" value="" style="ellipse;whiteSpace=wrap;html=1;" vertex="1" parent="1">
          <mxGeometry x="659" y="-15" width="120" height="80" as="geometry" />
        </mxCell>
        <mxCell id="-6VNuhuK6d15pAhx_Pdp-8" value="" style="ellipse;whiteSpace=wrap;html=1;" vertex="1" parent="1">
          <mxGeometry x="1074" y="-25" width="120" height="80" as="geometry" />
        </mxCell>
        <mxCell id="-6VNuhuK6d15pAhx_Pdp-9" value="" style="ellipse;whiteSpace=wrap;html=1;" vertex="1" parent="1">
          <mxGeometry x="438" y="255" width="120" height="80" as="geometry" />
        </mxCell>
        <mxCell id="-6VNuhuK6d15pAhx_Pdp-21" value="Contenedor Docker" style="rounded=0;whiteSpace=wrap;html=1;" vertex="1" parent="1">
          <mxGeometry x="1160" y="-465" width="270" height="200" as="geometry" />
        </mxCell>
        <mxCell id="-6VNuhuK6d15pAhx_Pdp-22" value="&#xa;&#xa;&lt;span style=&quot;color: rgb(0, 0, 0); font-family: helvetica; font-size: 12px; font-style: normal; font-weight: 400; letter-spacing: normal; text-align: center; text-indent: 0px; text-transform: none; word-spacing: 0px; background-color: rgb(248, 249, 250); display: inline; float: none;&quot;&gt;Contenedor Docker&lt;/span&gt;&#xa;&#xa;" style="rounded=0;whiteSpace=wrap;html=1;" vertex="1" parent="1">
          <mxGeometry x="762" y="-455" width="270" height="200" as="geometry" />
        </mxCell>
        <mxCell id="-6VNuhuK6d15pAhx_Pdp-23" value="&lt;span&gt;Contenedor Docker&lt;/span&gt;" style="rounded=0;whiteSpace=wrap;html=1;" vertex="1" parent="1">
          <mxGeometry x="380" y="-455" width="270" height="200" as="geometry" />
        </mxCell>
        <mxCell id="-6VNuhuK6d15pAhx_Pdp-24" value="Contenedor Docker" style="rounded=0;whiteSpace=wrap;html=1;" vertex="1" parent="1">
          <mxGeometry x="-390" y="-455" width="270" height="200" as="geometry" />
        </mxCell>
        <mxCell id="-6VNuhuK6d15pAhx_Pdp-25" value="Contenedor Docker" style="rounded=0;whiteSpace=wrap;html=1;" vertex="1" parent="1">
          <mxGeometry y="-455" width="270" height="200" as="geometry" />
        </mxCell>
        <mxCell id="-6VNuhuK6d15pAhx_Pdp-26" value="" style="ellipse;whiteSpace=wrap;html=1;" vertex="1" parent="1">
          <mxGeometry x="-250" y="-345" width="120" height="80" as="geometry" />
        </mxCell>
        <mxCell id="-6VNuhuK6d15pAhx_Pdp-27" value="" style="ellipse;whiteSpace=wrap;html=1;" vertex="1" parent="1">
          <mxGeometry x="147" y="-335" width="120" height="80" as="geometry" />
        </mxCell>
        <mxCell id="-6VNuhuK6d15pAhx_Pdp-28" value="" style="ellipse;whiteSpace=wrap;html=1;" vertex="1" parent="1">
          <mxGeometry x="525" y="-345" width="120" height="80" as="geometry" />
        </mxCell>
        <mxCell id="-6VNuhuK6d15pAhx_Pdp-29" value="" style="ellipse;whiteSpace=wrap;html=1;" vertex="1" parent="1">
          <mxGeometry x="912" y="-345" width="120" height="80" as="geometry" />
        </mxCell>
        <mxCell id="-6VNuhuK6d15pAhx_Pdp-30" value="" style="ellipse;whiteSpace=wrap;html=1;" vertex="1" parent="1">
          <mxGeometry x="1295" y="-355" width="120" height="80" as="geometry" />
        </mxCell>
        <mxCell id="-6VNuhuK6d15pAhx_Pdp-31" value="Gateway Service" style="ellipse;whiteSpace=wrap;html=1;" vertex="1" parent="1">
          <mxGeometry x="49" y="-1049" width="120" height="80" as="geometry" />
        </mxCell>
        <mxCell id="-6VNuhuK6d15pAhx_Pdp-32" value="Eureka Server" style="ellipse;whiteSpace=wrap;html=1;" vertex="1" parent="1">
          <mxGeometry x="52" y="-664" width="120" height="80" as="geometry" />
        </mxCell>
        <mxCell id="-6VNuhuK6d15pAhx_Pdp-33" value="Config Server" style="ellipse;whiteSpace=wrap;html=1;" vertex="1" parent="1">
          <mxGeometry x="608" y="-664" width="120" height="80" as="geometry" />
        </mxCell>
        <mxCell id="-6VNuhuK6d15pAhx_Pdp-60" value="&lt;font style=&quot;font-size: 30px&quot;&gt;&lt;b&gt;MICROSERVICIOS&lt;/b&gt;&lt;/font&gt;" style="text;html=1;strokeColor=none;fillColor=none;align=center;verticalAlign=middle;whiteSpace=wrap;rounded=0;" vertex="1" parent="1">
          <mxGeometry x="-413" y="335" width="60" height="30" as="geometry" />
        </mxCell>
      </root>
    </mxGraphModel>
  </diagram>
</mxfile>
